<svg width="20" height="20" viewBox="0 0 20 20" fill="none" xmlns="http://www.w3.org/2000/svg">
<path d="M12.3566 6.46415L7.64331 11.1783C7.56372 11.2552 7.50023 11.3471 7.45656 11.4488C7.41288 11.5505 7.38989 11.6598 7.38893 11.7705C7.38797 11.8811 7.40906 11.9909 7.45096 12.0933C7.49286 12.1957 7.55473 12.2887 7.63298 12.367C7.71122 12.4452 7.80427 12.5071 7.90668 12.549C8.00909 12.5909 8.11883 12.612 8.22948 12.611C8.34013 12.6101 8.44947 12.5871 8.55114 12.5434C8.65281 12.4997 8.74477 12.4362 8.82164 12.3567L13.5358 7.64332C14.0047 7.17444 14.2681 6.5385 14.2681 5.8754C14.2681 5.21231 14.0047 4.57637 13.5358 4.10749C13.0669 3.63861 12.431 3.37519 11.7679 3.37519C11.1048 3.37519 10.4689 3.63861 9.99997 4.10749L5.28581 8.82165C4.89087 9.20676 4.57633 9.66645 4.36044 10.1741C4.14455 10.6817 4.0316 11.2271 4.02814 11.7787C4.02468 12.3303 4.13079 12.8771 4.34031 13.3874C4.54982 13.8977 4.85857 14.3613 5.24865 14.7513C5.63873 15.1413 6.10238 15.45 6.61269 15.6595C7.123 15.8689 7.66981 15.9749 8.22142 15.9714C8.77303 15.9679 9.31844 15.8548 9.82602 15.6389C10.3336 15.4229 10.7933 15.1083 11.1783 14.7133L15.8925 9.99999L17.0708 11.1783L12.3566 15.8925C11.8149 16.4342 11.1718 16.8639 10.4641 17.1571C9.75631 17.4502 8.99773 17.6011 8.23164 17.6011C7.46556 17.6011 6.70698 17.4502 5.99921 17.1571C5.29144 16.8639 4.64834 16.4342 4.10664 15.8925C3.56494 15.3508 3.13524 14.7077 2.84207 13.9999C2.5489 13.2922 2.39801 12.5336 2.39801 11.7675C2.39801 11.0014 2.5489 10.2428 2.84207 9.53505C3.13524 8.82729 3.56494 8.18419 4.10664 7.64249L8.82164 2.92915C9.60748 2.17016 10.66 1.75019 11.7525 1.75968C12.845 1.76917 13.89 2.20738 14.6626 2.97991C15.4351 3.75244 15.8733 4.7975 15.8828 5.88998C15.8923 6.98247 15.4723 8.03498 14.7133 8.82082L9.99997 13.5367C9.76775 13.7688 9.49208 13.953 9.18869 14.0786C8.8853 14.2042 8.56013 14.2689 8.23176 14.2688C7.90339 14.2688 7.57824 14.2041 7.27488 14.0784C6.97152 13.9527 6.69589 13.7685 6.46372 13.5362C6.23156 13.304 6.0474 13.0283 5.92178 12.725C5.79615 12.4216 5.73151 12.0964 5.73155 11.768C5.73159 11.4397 5.79631 11.1145 5.922 10.8111C6.0477 10.5078 6.23192 10.2322 6.46414 9.99999L11.1783 5.28582L12.3566 6.46415Z" fill="#6C757D"/>
</svg>
