<svg width="24" height="24" viewBox="0 0 24 24" fill="none" xmlns="http://www.w3.org/2000/svg">
<path fill-rule="evenodd" clip-rule="evenodd" d="M15.2865 3.50531C16.3784 3.93991 16.7135 5.45342 17.1589 5.93991C17.6054 6.42639 18.2443 6.5918 18.5978 6.5918C19.5 6.5918 20.3651 6.95009 21.0031 7.58789C21.6411 8.22568 21.9997 9.09076 22 9.99288V16.2577C22 17.4677 21.5193 18.6281 20.6638 19.4837C19.8082 20.3393 18.6478 20.8199 17.4378 20.8199H6.56216C5.3522 20.8199 4.1918 20.3393 3.33623 19.4837C2.48065 18.6281 2 17.4677 2 16.2577V9.99288C2.00029 9.09076 2.35885 8.22568 2.99685 7.58789C3.63485 6.95009 4.50004 6.5918 5.40216 6.5918C5.75459 6.5918 6.39351 6.42639 6.84108 5.93991C7.28757 5.45342 7.62054 3.93991 8.71243 3.50531C9.80541 3.0718 14.1946 3.0718 15.2865 3.50531Z" stroke="white" stroke-width="2" stroke-linecap="round" stroke-linejoin="round"/>
<path d="M17.9409 9.396H17.9517" stroke="white" stroke-width="2" stroke-linecap="round" stroke-linejoin="round"/>
<path fill-rule="evenodd" clip-rule="evenodd" d="M15.4364 13.3185C15.4445 12.8621 15.3616 12.4087 15.1926 11.9847C15.0235 11.5607 14.7717 11.1747 14.4518 10.849C14.132 10.5234 13.7504 10.2648 13.3295 10.0883C12.9086 9.91173 12.4567 9.8208 12.0002 9.8208C11.5438 9.8208 11.0919 9.91173 10.671 10.0883C10.2501 10.2648 9.86851 10.5234 9.54862 10.849C9.22874 11.1747 8.97692 11.5607 8.80787 11.9847C8.63882 12.4087 8.55592 12.8621 8.56402 13.3185C8.58 14.2193 8.94905 15.0778 9.59173 15.7092C10.2344 16.3405 11.0993 16.6943 12.0002 16.6943C12.9012 16.6943 13.7661 16.3405 14.4087 15.7092C15.0514 15.0778 15.4205 14.2193 15.4364 13.3185V13.3185Z" stroke="white" stroke-width="2" stroke-linecap="round" stroke-linejoin="round"/>
</svg>
