<svg width="20" height="20" viewBox="0 0 20 20" fill="none" xmlns="http://www.w3.org/2000/svg">
<path d="M18.4024 9.49617C17.7158 8.04968 16.8987 6.87 15.9512 5.95711L14.9574 6.95086C15.7678 7.72527 16.4736 8.73836 17.084 10.0001C15.459 13.3634 13.1523 14.961 10 14.961C9.05378 14.961 8.18223 14.8153 7.38536 14.5239L6.3086 15.6007C7.41537 16.1117 8.64584 16.3673 10 16.3673C13.7539 16.3673 16.5547 14.4122 18.4024 10.502C18.4766 10.3448 18.5152 10.173 18.5152 9.9991C18.5152 9.82518 18.4766 9.65342 18.4024 9.49617ZM17.1607 3.23367L16.3281 2.40007C16.3136 2.38555 16.2964 2.37402 16.2774 2.36616C16.2585 2.3583 16.2381 2.35425 16.2176 2.35425C16.1971 2.35425 16.1767 2.3583 16.1578 2.36616C16.1388 2.37402 16.1215 2.38555 16.107 2.40007L13.9709 4.53523C12.7932 3.93367 11.4695 3.63289 10 3.63289C6.2461 3.63289 3.44532 5.58796 1.59766 9.49812C1.5234 9.65538 1.48488 9.82714 1.48488 10.0011C1.48488 10.175 1.5234 10.3467 1.59766 10.504C2.33581 12.0587 3.22449 13.3048 4.26368 14.2425L2.19688 16.3087C2.1676 16.338 2.15115 16.3777 2.15115 16.4191C2.15115 16.4605 2.1676 16.5003 2.19688 16.5296L3.03067 17.3634C3.05997 17.3926 3.0997 17.4091 3.14112 17.4091C3.18254 17.4091 3.22227 17.3926 3.25157 17.3634L17.1607 3.45476C17.1753 3.44025 17.1868 3.42302 17.1947 3.40405C17.2025 3.38508 17.2066 3.36475 17.2066 3.34421C17.2066 3.32368 17.2025 3.30335 17.1947 3.28438C17.1868 3.26541 17.1753 3.24818 17.1607 3.23367ZM2.91602 10.0001C4.54297 6.63679 6.84962 5.03914 10 5.03914C11.0652 5.03914 12.0338 5.22195 12.9125 5.59363L11.5395 6.96668C10.8892 6.61973 10.1446 6.49097 9.41564 6.59938C8.68663 6.7078 8.01177 7.04765 7.49061 7.56881C6.96946 8.08996 6.62961 8.76483 6.52119 9.49383C6.41277 10.2228 6.54154 10.9674 6.88848 11.6177L5.25919 13.2469C4.35743 12.4511 3.58008 11.3727 2.91602 10.0001ZM7.73438 10.0001C7.73472 9.65567 7.8163 9.3162 7.97249 9.00925C8.12867 8.70229 8.35507 8.43651 8.63327 8.23349C8.91147 8.03047 9.23365 7.89594 9.57361 7.84082C9.91358 7.78571 10.2618 7.81156 10.5898 7.91629L7.83809 10.668C7.76912 10.4521 7.73413 10.2268 7.73438 10.0001Z" fill="black"/>
<path d="M9.92187 12.1874C9.85429 12.1874 9.78769 12.1843 9.72167 12.1782L8.69003 13.2099C9.31052 13.4475 9.98656 13.5003 10.6364 13.3619C11.2863 13.2235 11.8821 12.8998 12.352 12.43C12.8218 11.9602 13.1455 11.3643 13.2839 10.7145C13.4223 10.0646 13.3695 9.38856 13.1318 8.76807L12.1002 9.79971C12.1062 9.86572 12.1094 9.93232 12.1094 9.9999C12.1095 10.2872 12.053 10.5717 11.9432 10.8372C11.8333 11.1027 11.6722 11.3439 11.469 11.547C11.2658 11.7502 11.0246 11.9113 10.7592 12.0212C10.4937 12.1311 10.2092 12.1876 9.92187 12.1874Z" fill="black"/>
</svg>
