<svg width="62" height="62" viewBox="0 0 62 62" fill="none" xmlns="http://www.w3.org/2000/svg">
<circle cx="31" cy="31" r="24" fill="white"/>
<circle cx="31" cy="31" r="29.5" stroke="#FFA800" stroke-width="3"/>
<path d="M31 20C24.928 20 20 24.928 20 31C20 37.072 24.928 42 31 42C37.072 42 42 37.072 42 31C42 24.928 37.083 20 31 20ZM34.3 33.453L31.11 35.29C30.726 35.5138 30.2895 35.6317 29.845 35.6317C29.4005 35.6317 28.964 35.5138 28.58 35.29C28.1929 35.0685 27.8718 34.748 27.6495 34.3614C27.4272 33.9748 27.3117 33.536 27.315 33.09V29.405C27.315 28.492 27.788 27.667 28.58 27.205C29.372 26.743 30.318 26.743 31.121 27.205L34.311 29.042C35.103 29.504 35.576 30.318 35.576 31.242C35.576 32.166 35.103 32.991 34.3 33.453Z" fill="black"/>
</svg>
