<svg width="20" height="20" viewBox="0 0 20 20" fill="none" xmlns="http://www.w3.org/2000/svg">
<path fill-rule="evenodd" clip-rule="evenodd" d="M1.78395 10C1.87503 10.1574 1.99577 10.358 2.14535 10.5896C2.52953 11.1844 3.09847 11.9755 3.83711 12.7634C5.3296 14.3554 7.41626 15.8333 10 15.8333C12.5837 15.8333 14.6704 14.3554 16.1629 12.7634C16.9015 11.9755 17.4705 11.1844 17.8547 10.5896C18.0042 10.358 18.125 10.1574 18.216 10C18.125 9.84261 18.0042 9.64204 17.8547 9.41044C17.4705 8.81557 16.9015 8.0245 16.1629 7.23662C14.6704 5.64463 12.5837 4.16667 10 4.16667C7.41626 4.16667 5.3296 5.64463 3.83711 7.23662C3.09847 8.0245 2.52953 8.81557 2.14535 9.41044C1.99577 9.64204 1.87503 9.84261 1.78395 10ZM19.1667 10C19.912 9.62732 19.9119 9.62704 19.9117 9.62673L19.9104 9.62406L19.9075 9.61837L19.8981 9.59985C19.8901 9.58439 19.8789 9.56276 19.8644 9.53537C19.8354 9.48058 19.7933 9.40269 19.7384 9.30499C19.6285 9.1097 19.4668 8.8346 19.2547 8.50623C18.8316 7.85109 18.2026 6.9755 17.3788 6.09672C15.7463 4.35537 13.2496 2.5 10 2.5C6.75041 2.5 4.25373 4.35537 2.62122 6.09672C1.79736 6.9755 1.16839 7.85109 0.74528 8.50623C0.533208 8.8346 0.371493 9.1097 0.261643 9.30499C0.206686 9.40269 0.164617 9.48058 0.135628 9.53537C0.121131 9.56276 0.109896 9.58439 0.101948 9.59985L0.0924917 9.61837L0.0896158 9.62406L0.0886417 9.626C0.0884886 9.6263 0.0879773 9.62732 0.833333 10L0.0879773 9.62732C-0.0293258 9.86193 -0.0293258 10.1381 0.0879773 10.3727L0.833333 10C0.0879773 10.3727 0.0878242 10.3724 0.0879773 10.3727L0.0896158 10.3759L0.0924917 10.3816L0.101948 10.4001C0.109896 10.4156 0.121131 10.4372 0.135628 10.4646C0.164617 10.5194 0.206686 10.5973 0.261643 10.695C0.371493 10.8903 0.533208 11.1654 0.74528 11.4938C1.16839 12.1489 1.79736 13.0245 2.62122 13.9033C4.25373 15.6446 6.75041 17.5 10 17.5C13.2496 17.5 15.7463 15.6446 17.3788 13.9033C18.2026 13.0245 18.8316 12.1489 19.2547 11.4938C19.4668 11.1654 19.6285 10.8903 19.7384 10.695C19.7933 10.5973 19.8354 10.5194 19.8644 10.4646C19.8789 10.4372 19.8901 10.4156 19.8981 10.4001L19.9075 10.3816L19.9104 10.3759L19.9114 10.374C19.9115 10.3737 19.912 10.3727 19.1667 10ZM19.1667 10L19.912 10.3727C20.0293 10.1381 20.029 9.86134 19.9117 9.62673L19.1667 10Z" fill="black"/>
<path fill-rule="evenodd" clip-rule="evenodd" d="M10 8.33341C9.07955 8.33341 8.33335 9.07961 8.33335 10.0001C8.33335 10.9206 9.07955 11.6667 10 11.6667C10.9205 11.6667 11.6667 10.9206 11.6667 10.0001C11.6667 9.07961 10.9205 8.33341 10 8.33341ZM6.66669 10.0001C6.66669 8.15913 8.15907 6.66675 10 6.66675C11.841 6.66675 13.3334 8.15913 13.3334 10.0001C13.3334 11.841 11.841 13.3334 10 13.3334C8.15907 13.3334 6.66669 11.841 6.66669 10.0001Z" fill="black"/>
</svg>
