<svg width="62" height="62" viewBox="0 0 62 62" fill="none" xmlns="http://www.w3.org/2000/svg">
<circle cx="31" cy="31" r="24" fill="white"/>
<circle cx="31" cy="31" r="29.5" stroke="#FFA800" stroke-width="3"/>
<path d="M30.7445 20C27.8624 20 25.5193 22.3431 25.5193 25.2253C25.5193 28.0524 27.7304 30.3405 30.6125 30.4395C30.7005 30.4285 30.7886 30.4285 30.8546 30.4395H30.9316C32.2839 30.3944 33.5657 29.8251 34.506 28.852C35.4462 27.879 35.9711 26.5784 35.9698 25.2253C35.9698 22.3431 33.6267 20 30.7445 20Z" fill="black"/>
<path d="M36.3327 33.3647C33.2635 31.3186 28.2583 31.3186 25.1671 33.3647C23.77 34.2997 23 35.5648 23 36.9178C23 38.2709 23.77 39.525 25.1561 40.449C26.6962 41.4831 28.7203 42.0001 30.7444 42.0001C32.7685 42.0001 34.7926 41.4831 36.3327 40.449C37.7187 39.514 38.4888 38.2599 38.4888 36.8958C38.4778 35.5428 37.7187 34.2887 36.3327 33.3647Z" fill="black"/>
</svg>
